HIERARCHY
ROOT Hips
{
	OFFSET 0.000000 0.000000 0.000000
	CHANNELS 6 Xposition Yposition Zposition Zrotation Yrotation Xrotation 
	JOINT LowerBack
	{
		OFFSET 0.000000 0.000000 0.000000
		CHANNELS 3 Zrotation Yrotation Xrotation
		JOINT Spine
		{
			OFFSET 0.028270 2.035590 -0.193380
			CHANNELS 3 Zrotation Yrotation Xrotation
			JOINT Spine1
			{
				OFFSET 0.056720 2.048850 -0.042750
				CHANNELS 3 Zrotation Yrotation Xrotation
				JOINT Neck
				{
					OFFSET 0.000000 0.000000 0.000000
					CHANNELS 3 Zrotation Yrotation Xrotation
					JOINT Neck1
					{
						OFFSET -0.054170 1.746240 0.172020
						CHANNELS 3 Zrotation Yrotation Xrotation
						JOINT Head
						{
							OFFSET 0.104070 1.761360 -0.123970
							CHANNELS 3 Zrotation Yrotation Xrotation
							End Site
							{
								OFFSET 0.000000 0.000000 0.000000
							}
						}
					}
				}
				JOINT LeftShoulder
				{
					OFFSET 0.000000 0.000000 0.000000
					CHANNELS 3 Zrotation Yrotation Xrotation
					JOINT LeftArm
					{
						OFFSET 3.362410 1.200890 -0.311210
						CHANNELS 3 Zrotation Yrotation Xrotation
						JOINT LeftForeArm
						{
							OFFSET 4.983000 -0.000000 -0.000000
							CHANNELS 3 Zrotation Yrotation Xrotation
							JOINT LeftHand
							{
								OFFSET 3.483560 -0.000000 -0.000000
								CHANNELS 3 Zrotation Yrotation Xrotation
								JOINT LeftFingerBase
								{
									OFFSET 0.000000 0.000000 0.000000
									CHANNELS 3 Zrotation Yrotation Xrotation
									JOINT LeftHandIndex1
									{
										OFFSET 0.715260 -0.000000 -0.000000
										CHANNELS 3 Zrotation Yrotation Xrotation
										End Site
										{
											OFFSET 0.000000 0.000000 0.000000
										}
									}
								}
								JOINT LThumb
								{
									OFFSET 0.000000 0.000000 0.000000
									CHANNELS 3 Zrotation Yrotation Xrotation
									End Site
									{
										OFFSET 0.000000 0.000000 0.000000
									}
								}
							}
						}
					}
				}
				JOINT RightShoulder
				{
					OFFSET 0.000000 0.000000 0.000000
					CHANNELS 3 Zrotation Yrotation Xrotation
					JOINT RightArm
					{
						OFFSET -3.136600 1.374050 -0.404650
						CHANNELS 3 Zrotation Yrotation Xrotation
						JOINT RightForeArm
						{
							OFFSET -5.241900 -0.000000 -0.000000
							CHANNELS 3 Zrotation Yrotation Xrotation
							JOINT RightHand
							{
								OFFSET -3.444170 -0.000000 -0.000000
								CHANNELS 3 Zrotation Yrotation Xrotation
								JOINT RightFingerBase
								{
									OFFSET 0.000000 0.000000 0.000000
									CHANNELS 3 Zrotation Yrotation Xrotation
									JOINT RightHandIndex1
									{
										OFFSET -0.622530 -0.000000 -0.000000
										CHANNELS 3 Zrotation Yrotation Xrotation
										End Site
										{
											OFFSET 0.000000 0.000000 0.000000
										}
									}
								}
								JOINT RThumb
								{
									OFFSET 0.000000 0.000000 0.000000
									CHANNELS 3 Zrotation Yrotation Xrotation
									End Site
									{
										OFFSET 0.000000 0.000000 0.000000
									}
								}
							}
						}
					}
				}
			}
		}
	}
}
}
MOTION
Frames: 18
Frame Time: 0.008333
3.000708 17.168304 -0.132858 -179.155732 -71.301774 -174.335267 -4.444322 -1.509408 -7.450551 -1.307433 -1.405828 -3.545324 -4.658187 -1.480509 2.954312 11.034139 -20.360960 -8.734576 -1.082385 -0.073840 -0.197005 0.000000 0.000000 0.000000 10.144104 17.992724 0.191404 -38.585753 11.174961 -14.570690 -179.323029 -77.286623 -179.984530 -2.396275 -3.946849 0.092985 0.035897 0.402310 -0.000000 0.000000 0.000000 0.000000 0.000000 0.000000 0.000000 6.375107 -14.541994 -2.503893 32.417576 27.529606 -0.800630 -179.673866 69.991268 179.915432 -9.188143 9.705197 -0.849600 0.133136 -0.689554 -0.000000 0.000000 0.000000 0.000000 0.000000 0.000000 0.000000 
2.979596 17.171312 -0.128853 -178.762110 -69.549498 -174.685360 -3.973815 -1.508681 -7.737287 -1.188808 -1.453707 -3.600650 -4.614121 -1.531811 2.972264 11.173572 -20.464000 -8.890351 -1.030926 -0.067485 -0.235650 0.000000 0.000000 0.000000 9.807125 18.215468 0.313213 -38.301990 11.412108 -14.689264 -179.338925 -78.376974 -179.984076 -2.419722 -3.944093 0.093453 0.028933 0.394555 -0.000000 0.000000 0.000000 0.000000 0.000000 0.000000 0.000000 6.462398 -14.620254 -2.478536 32.122011 27.945545 -0.636052 -179.672763 69.867429 179.914558 -9.248378 9.750024 -0.859314 0.134883 -0.693078 -0.000000 0.000000 0.000000 0.000000 0.000000 0.000000 0.000000 
2.956827 17.174879 -0.124568 -178.418182 -67.793905 -174.972773 -3.468969 -1.510882 -8.034103 -1.062931 -1.508351 -3.658175 -4.570781 -1.589307 2.987475 11.311054 -20.563538 -9.039095 -0.978136 -0.061069 -0.272643 0.000000 0.000000 0.000000 9.492787 18.405750 0.440451 -37.877801 11.531244 -14.687277 -179.363762 -79.615637 -179.983552 -2.461050 -3.912755 0.093918 0.022190 0.385982 0.000000 0.000000 0.000000 0.000000 0.000000 0.000000 0.000000 6.547675 -14.709888 -2.450430 31.782135 28.344751 -0.505742 -179.670524 69.728627 179.913644 -9.312119 9.785588 -0.868531 0.136628 -0.696364 -0.000000 0.000000 0.000000 0.000000 0.000000 0.000000 0.000000 
2.932604 17.178946 -0.120143 -178.114861 -66.050666 -175.203886 -2.937906 -1.510596 -8.344583 -0.931786 -1.563775 -3.720034 -4.526592 -1.647174 2.995793 11.448472 -20.677240 -9.175140 -0.924535 -0.054743 -0.306406 0.000000 0.000000 0.000000 9.229685 18.505402 0.569574 -37.338075 11.570589 -14.584074 -179.397764 -80.973622 -179.982922 -2.536025 -3.841799 0.094777 0.016304 0.376628 -0.000000 0.000000 0.000000 0.000000 0.000000 0.000000 0.000000 6.630617 -14.826177 -2.415474 31.396209 28.713072 -0.417238 -179.668604 69.572207 179.912718 -9.381571 9.807543 -0.877248 0.138669 -0.699362 -0.000000 0.000000 0.000000 0.000000 0.000000 0.000000 0.000000 
2.907570 17.183465 -0.115510 -177.850608 -64.325422 -175.391497 -2.384244 -1.514674 -8.651049 -0.795280 -1.626076 -3.781916 -4.480755 -1.711342 2.999168 11.583494 -20.780906 -9.297138 -0.871581 -0.048615 -0.336829 0.000000 0.000000 0.000000 9.017109 18.542751 0.703142 -36.682724 11.512378 -14.398609 -179.439771 -82.425125 -179.982208 -2.641568 -3.724574 0.095628 0.011155 0.366846 -0.000000 0.000000 0.000000 0.000000 0.000000 0.000000 0.000000 6.709419 -14.947580 -2.379206 30.964892 29.053719 -0.375201 -179.664570 69.398955 179.911695 -9.463961 9.811836 -0.885768 0.140976 -0.701928 -0.000000 0.000000 0.000000 0.000000 0.000000 0.000000 0.000000 
2.881925 17.188399 -0.110729 -177.612005 -62.637083 -175.544317 -1.816522 -1.517873 -8.957018 -0.655281 -1.689329 -3.846119 -4.431099 -1.776163 2.993056 11.719104 -20.901120 -9.401742 -0.819325 -0.042773 -0.362890 0.000000 0.000000 0.000000 8.881197 18.451217 0.836987 -35.948953 11.418165 -14.174431 -179.488145 -83.917104 -179.981418 -2.784222 -3.553518 0.096168 0.007203 0.356895 -0.000000 0.000000 0.000000 0.000000 0.000000 0.000000 0.000000 6.784417 -15.096737 -2.336187 30.488723 29.359152 -0.386178 -179.660891 69.212089 179.910629 -9.559082 9.799884 -0.893986 0.143862 -0.704147 -0.000000 0.000000 0.000000 0.000000 0.000000 0.000000 0.000000 
2.856371 17.193733 -0.105565 -177.401063 -60.993857 -175.671444 -1.239027 -1.531061 -9.244109 -0.511485 -1.763439 -3.907847 -4.376933 -1.851457 2.980433 11.853081 -21.011840 -9.490457 -0.769531 -0.037306 -0.385194 0.000000 0.000000 0.000000 8.811690 18.271754 0.973570 -35.136545 11.278953 -13.941860 -179.540196 -85.406866 -179.980633 -2.943455 -3.331420 0.095600 0.003984 0.347388 -0.000000 0.000000 0.000000 0.000000 0.000000 0.000000 0.000000 6.857414 -15.250388 -2.292544 29.968398 29.642484 -0.451350 -179.655186 69.020870 179.909431 -9.672737 9.772677 -0.902605 0.147213 -0.705930 -0.000000 0.000000 0.000000 0.000000 0.000000 0.000000 0.000000 
2.831014 17.199480 -0.100019 -177.202669 -59.414664 -175.780351 -0.659658 -1.550703 -9.517488 -0.365585 -1.844267 -3.969501 -4.316831 -1.933386 2.957542 11.988586 -21.142733 -9.562666 -0.721985 -0.032236 -0.403404 0.000000 0.000000 0.000000 8.828132 17.946704 1.107900 -34.278503 11.162407 -13.743614 -179.592776 -86.831152 -179.979906 -3.109511 -3.057681 0.093222 0.001655 0.338723 -0.000000 0.000000 0.000000 0.000000 0.000000 0.000000 0.000000 6.931085 -15.434418 -2.242720 29.407001 29.906921 -0.571988 -179.650439 68.834139 179.908187 -9.800439 9.737514 -0.911823 0.151220 -0.707483 -0.000000 0.000000 0.000000 0.000000 0.000000 0.000000 0.000000 
2.806382 17.205604 -0.093828 -177.021155 -57.906940 -175.875341 -0.082232 -1.589967 -9.761590 -0.217198 -1.944025 -4.026473 -4.251072 -2.034085 2.928776 12.122571 -21.266386 -9.622302 -0.678265 -0.027600 -0.418712 0.000000 0.000000 0.000000 8.912195 17.534624 1.241856 -33.362834 11.051062 -13.595675 -179.642842 -88.151074 -179.979341 -3.248074 -2.746887 0.088239 -0.000462 0.331613 -0.000000 0.000000 0.000000 0.000000 0.000000 0.000000 0.000000 7.008656 -15.625383 -2.193544 28.806599 30.173838 -0.743833 -179.644116 68.663919 179.906827 -9.944735 9.699014 -0.922244 0.155624 -0.708783 -0.000000 0.000000 0.000000 0.000000 0.000000 0.000000 0.000000 
2.782473 17.212084 -0.087069 -176.843213 -56.487234 -175.959514 0.486137 -1.645326 -9.985960 -0.068204 -2.058808 -4.081751 -4.179889 -2.149892 2.891414 12.258163 -21.413538 -9.670647 -0.637880 -0.023361 -0.431261 0.000000 0.000000 0.000000 9.078300 16.990748 1.369782 -32.405901 10.996961 -13.516368 -179.687459 -89.318152 -179.978997 -3.341209 -2.409242 0.080751 -0.002341 0.326456 -0.000000 0.000000 0.000000 0.000000 0.000000 0.000000 0.000000 7.095188 -15.851140 -2.139579 28.173126 30.449999 -0.962332 -179.639421 68.521567 179.905454 -10.097373 9.666356 -0.933865 0.160480 -0.710054 -0.000000 0.000000 0.000000 0.000000 0.000000 0.000000 0.000000 
2.759713 17.218879 -0.079432 -176.677106 -55.160360 -176.033094 1.041864 -1.729135 -10.179166 0.081410 -2.200064 -4.131114 -4.104801 -2.292103 2.851593 12.391882 -21.555986 -9.713421 -0.601882 -0.019479 -0.442695 0.000000 0.000000 0.000000 9.303359 16.392759 1.493386 -31.375929 10.946405 -13.490667 0.274637 -89.671386 0.021010 -3.353786 -2.075223 0.071163 -0.004654 0.323972 -0.000000 0.000000 0.000000 0.000000 0.000000 0.000000 0.000000 7.194414 -16.089264 -2.088356 27.509145 30.755678 -1.219614 -179.633424 68.415876 179.904024 -10.257649 9.642895 -0.946990 0.165384 -0.711236 -0.000000 0.000000 0.000000 0.000000 0.000000 0.000000 0.000000 
2.737925 17.225912 -0.071181 -176.513818 -53.937349 -176.093112 1.577367 -1.837587 -10.354201 0.229220 -2.363739 -4.177451 -4.027822 -2.456765 2.809151 12.527451 -21.715061 -9.753147 -0.569560 -0.015869 -0.453528 0.000000 0.000000 0.000000 9.595981 15.723347 1.608508 -30.264278 10.901257 -13.503570 0.243869 -88.816217 0.020684 -3.270531 -1.774511 0.060777 -0.007434 0.324582 -0.000000 0.000000 0.000000 0.000000 0.000000 0.000000 0.000000 7.312327 -16.360690 -2.036493 26.821458 31.092223 -1.508087 -179.628290 68.348875 179.902639 -10.415652 9.633393 -0.961117 0.170254 -0.712464 0.000000 0.000000 0.000000 0.000000 0.000000 0.000000 0.000000 
2.717257 17.233104 -0.062300 -176.356196 -52.822607 -176.137084 2.086460 -1.973130 -10.512694 0.373545 -2.551638 -4.219869 -3.951250 -2.645584 2.768289 12.665523 -21.882428 -9.794068 -0.540644 -0.012423 -0.464909 0.000000 0.000000 0.000000 9.947103 15.027198 1.714930 -29.038308 10.794180 -13.520551 0.218700 -88.068428 0.019899 -3.072651 -1.552598 0.051292 -0.011000 0.328894 -0.000000 0.000000 0.000000 0.000000 0.000000 0.000000 0.000000 7.452924 -16.661200 -1.987114 26.115028 31.459794 -1.820632 -179.623000 68.319741 179.901333 -10.565494 9.636933 -0.975748 0.174778 -0.713647 -0.000000 0.000000 0.000000 0.000000 0.000000 0.000000 0.000000 
2.697720 17.240329 -0.052866 -176.202599 -51.820417 -176.164599 2.563146 -2.133525 -10.659783 0.512335 -2.761029 -4.258552 -3.877284 -2.855737 2.731975 12.808817 -22.056622 -9.839137 -0.514266 -0.009011 -0.477618 0.000000 0.000000 0.000000 10.353114 14.332732 1.812164 -27.668332 10.550840 -13.504383 0.196260 -87.348618 0.018599 -2.749421 -1.460442 0.043913 -0.015534 0.337448 -0.000000 0.000000 0.000000 0.000000 0.000000 0.000000 0.000000 7.619352 -16.992654 -1.941494 25.395569 31.848170 -2.151176 -179.617264 68.319608 179.900170 -10.699229 9.649508 -0.989581 0.178716 -0.714685 -0.000000 0.000000 0.000000 0.000000 0.000000 0.000000 0.000000 
2.679423 17.247442 -0.043106 -176.052551 -50.934267 -176.175056 2.998461 -2.313059 -10.803167 0.642641 -2.985521 -4.294734 -3.807597 -3.080818 2.701009 12.962274 -22.239537 -9.888713 -0.489292 -0.005530 -0.491715 0.000000 0.000000 0.000000 10.816472 13.647802 1.899810 -26.133869 10.102449 -13.424683 0.173200 -86.551327 0.016708 -2.299061 -1.548629 0.038841 -0.021060 0.350659 -0.000000 0.000000 0.000000 0.000000 0.000000 0.000000 0.000000 7.814711 -17.358619 -1.899044 24.669022 32.232704 -2.495729 -179.611478 68.337335 179.899239 -10.808149 9.663105 -1.001318 0.181891 -0.715382 0.000000 0.000000 0.000000 0.000000 0.000000 0.000000 0.000000 
2.662581 17.254421 -0.032936 -175.914353 -50.165383 -176.166170 3.383755 -2.511712 -10.941158 0.762284 -3.223781 -4.326652 -3.742522 -3.319399 2.679573 13.129945 -22.410635 -9.943826 -0.464843 -0.001869 -0.507540 0.000000 0.000000 0.000000 11.325867 13.024906 1.980821 -24.411307 9.332947 -13.253815 0.145661 -85.526705 0.014102 -1.717384 -1.864513 0.033976 -0.027784 0.368872 -0.000000 0.000000 0.000000 0.000000 0.000000 0.000000 0.000000 8.040673 -17.744147 -1.864206 23.937913 32.591631 -2.852512 -179.603574 68.355326 179.898562 -10.887352 9.665616 -1.009058 0.184016 -0.715435 0.000000 0.000000 0.000000 0.000000 0.000000 0.000000 0.000000 
2.647192 17.261091 -0.022545 -175.777722 -49.517166 -176.145124 3.708885 -2.718004 -11.082009 0.867896 -3.463472 -4.357246 -3.681853 -3.559273 2.662416 13.320384 -22.581826 -9.998713 -0.439387 0.001982 -0.523418 0.000000 0.000000 0.000000 11.893435 12.413376 2.055261 -22.514860 8.228322 -12.993612 0.112138 -84.144625 0.010667 -1.014494 -2.429603 0.025218 -0.035486 0.391783 -0.000000 0.000000 0.000000 0.000000 0.000000 0.000000 0.000000 8.298236 -18.157489 -1.831861 23.210690 32.880633 -3.219916 -179.595837 68.359276 179.898268 -10.927516 9.647219 -1.010998 0.185138 -0.714658 0.000000 0.000000 0.000000 0.000000 0.000000 0.000000 0.000000 
2.633687 17.267479 -0.011917 -175.644760 -48.991304 -176.117728 3.964122 -2.926946 -11.223229 0.957085 -3.698071 -4.386557 -3.623499 -3.794023 2.646262 13.540455 -22.747573 -10.048558 -0.411734 0.006031 -0.538011 0.000000 0.000000 0.000000 12.514855 11.793628 2.126774 -20.458070 6.764829 -12.654892 0.072620 -82.263519 0.006247 -0.196229 -3.235721 0.006064 -0.044164 0.418577 0.000000 0.000000 0.000000 0.000000 0.000000 0.000000 0.000000 8.586762 -18.590628 -1.800958 22.494885 33.064679 -3.596966 -179.588682 68.333526 179.898420 -10.923089 9.596932 -1.005537 0.185223 -0.712828 0.000000 0.000000 0.000000 0.000000 0.000000 0.000000 0.000000 
